# xmcd
#
# Track frame offsets:
#	150
#	14987
#	29207
#	41924
#	54753
#	68576
#	80071
#	94300
#	107686
#	118255
#	129621
#	142505
#	155166
#	163155
#	180637
#	188059
#	201027
#	215583
#	227144
#	237521
#
# Disc length: 3352 seconds
#
# Revision: 1
# Processed by: cddbd v1.5.1PL0 Copyright (c) Steve Scherf et al.
# Submitted via: EasyCDDAExtractor 6.0.0.1
#
DISCID=2a0d1614
DTITLE=Various Artist - The Crooners Volume 3
DYEAR=2003
DGENRE=Pop
TTITLE0=Hoagy Carmichael - Lazy River
TTITLE1=Nat King Cole - Sweet Lorraine
TTITLE2=Fred Astaire - They All Laughed
TTITLE3=Frankie Laine - I'm In the Mood For Love
TTITLE4=Nat King Cole - Come to Baby Do
TTITLE5=Frankie Laine - Someday Sweetheart
TTITLE6=Tony Martin - A Star Fell Out of Heaven
TTITLE7=Frankie Laine - Blue Turning Grey Over You
TTITLE8=Dean Martin - Alone
TTITLE9=Al Jolson - For Me and My Gal
TTITLE10=Al Bowlly - Dinner At Eight
TTITLE11=Arthur Tracy - The Song of Songs
TTITLE12=Nelson Eddy - In the Still of the Night
TTITLE13=Mario Lanza - Without a Song
TTITLE14=Eddie Cantor - Put A Tax on Love
TTITLE15=Whispering Jack Smith - All by Yourself in the Moonlight
TTITLE16=Arthur Tracy - Marta
TTITLE17=Al Jolson - I Only Have Eyes for You
TTITLE18=Guy Mitchell - Angels Cry
TTITLE19=Bing Crosby - A Fine Romance
EXTD=
EXTT0=
EXTT1=
EXTT2=
EXTT3=
EXTT4=
EXTT5=
EXTT6=
EXTT7=
EXTT8=
EXTT9=
EXTT10=
EXTT11=
EXTT12=
EXTT13=
EXTT14=
EXTT15=
EXTT16=
EXTT17=
EXTT18=
EXTT19=
PLAYORDER=
